<svg id="Layer_10" data-name="Layer 10" xmlns="http://www.w3.org/2000/svg" xmlns:xlink="http://www.w3.org/1999/xlink" viewBox="0 0 531.39 255.44"><defs><style>.cls-1,.cls-41{fill:none;}.cls-2{isolation:isolate;}.cls-3{fill:#0b2359;}.cls-4{clip-path:url(#clip-path);}.cls-5{fill:#0b245d;}.cls-6{clip-path:url(#clip-path-2);}.cls-7{clip-path:url(#clip-path-3);}.cls-8{clip-path:url(#clip-path-4);}.cls-9{clip-path:url(#clip-path-5);}.cls-10{clip-path:url(#clip-path-6);}.cls-11{clip-path:url(#clip-path-7);}.cls-12{clip-path:url(#clip-path-8);}.cls-13{clip-path:url(#clip-path-9);}.cls-14{clip-path:url(#clip-path-10);}.cls-15{clip-path:url(#clip-path-11);}.cls-16{clip-path:url(#clip-path-12);}.cls-17{fill:#0d2967;}.cls-18{fill:#0c2764;}.cls-19{fill:#0c2660;}.cls-20{fill:#133e9d;}.cls-21{clip-path:url(#clip-path-13);}.cls-22{clip-path:url(#clip-path-14);}.cls-23{clip-path:url(#clip-path-15);}.cls-24{clip-path:url(#clip-path-16);}.cls-25{clip-path:url(#clip-path-17);}.cls-26{clip-path:url(#clip-path-18);}.cls-27{clip-path:url(#clip-path-19);}.cls-28{clip-path:url(#clip-path-20);}.cls-29{clip-path:url(#clip-path-21);}.cls-30{clip-path:url(#clip-path-22);}.cls-31{clip-path:url(#clip-path-23);}.cls-32{clip-path:url(#clip-path-24);}.cls-33{clip-path:url(#clip-path-25);}.cls-34{clip-path:url(#clip-path-26);}.cls-35{fill:#0d2867;}.cls-36{clip-path:url(#clip-path-27);}.cls-37{clip-path:url(#clip-path-28);}.cls-38{clip-path:url(#clip-path-29);}.cls-39{fill:#0c2661;}.cls-40{fill:#0d2866;}.cls-41,.cls-43{stroke:#000;}.cls-41,.cls-42,.cls-43{stroke-miterlimit:10;}.cls-41{stroke-width:7px;}.cls-42,.cls-43{fill:#1646b2;}.cls-42{stroke:#151616;}</style><clipPath id="clip-path" transform="translate(-958.11 -470.4)"><path class="cls-1" d="M1004.22,498v-4.36a23.56,23.56,0,0,1,8.27,2.46v4.35A23.78,23.78,0,0,0,1004.22,498Z"/></clipPath><clipPath id="clip-path-2" transform="translate(-958.11 -470.4)"><path class="cls-1" d="M1012.94,500.72l-.45-.26v-4.35a4.79,4.79,0,0,1,.45.25v4.36Z"/></clipPath><clipPath id="clip-path-3" transform="translate(-958.11 -470.4)"><path class="cls-1" d="M1012.94,500.72v-4.36a14.33,14.33,0,0,1,1.41.93v4.36A14.33,14.33,0,0,0,1012.94,500.72Z"/></clipPath><clipPath id="clip-path-4" transform="translate(-958.11 -470.4)"><path class="cls-1" d="M1015.14,502.28a9.92,9.92,0,0,0-.79-.63v-4.36a9.92,9.92,0,0,1,.79.63v4.36Z"/></clipPath><clipPath id="clip-path-5" transform="translate(-958.11 -470.4)"><path class="cls-1" d="M1016.9,504.14a.48.48,0,0,1,0-.12v-4.23a16.49,16.49,0,0,1,3.11,7.27v4.36A16.58,16.58,0,0,0,1016.9,504.14Z"/></clipPath><clipPath id="clip-path-6" transform="translate(-958.11 -470.4)"><path class="cls-1" d="M1020.16,512.32q-.06-.47-.15-.9v-4.36q.09.44.15.9v4.36Z"/></clipPath><clipPath id="clip-path-7" transform="translate(-958.11 -470.4)"><path class="cls-1" d="M1046.55,511.23v4.35c0-12.83-4-22.61-11.81-29.05s-19.54-9.77-34.7-9.77V472.4c15.16,0,26.83,3.29,34.7,9.77S1046.55,498.4,1046.55,511.23Z"/></clipPath><clipPath id="clip-path-8" transform="translate(-958.11 -470.4)"><path class="cls-1" d="M1020.16,512.32c0-.17,0-.34,0-.51V508a28.12,28.12,0,0,1,.3,4.22v4.35A28,28,0,0,0,1020.16,512.32Z"/></clipPath><clipPath id="clip-path-9" transform="translate(-958.11 -470.4)"><path class="cls-1" d="M1019.46,512.18v4.35c0-6.07-1.69-10.62-5-13.51s-8.64-4.35-15.81-4.35v-4.36c7.17,0,12.49,1.47,15.81,4.36S1019.46,506.1,1019.46,512.18Z"/></clipPath><clipPath id="clip-path-10" transform="translate(-958.11 -470.4)"><path class="cls-1" d="M1020.46,512.18v4.35c0,6.34-2.14,11.25-6.34,14.58s-10.51,5-18.84,5v-4.36c8.33,0,14.67-1.68,18.84-5S1020.46,518.52,1020.46,512.18Z"/></clipPath><clipPath id="clip-path-11" transform="translate(-958.11 -470.4)"><path class="cls-1" d="M1027.25,550.85c-7.71,4.09-17.52,6.16-29.29,6.16v-4.36c11.77,0,21.58-2.07,29.29-6.16v4.36Z"/></clipPath><clipPath id="clip-path-12" transform="translate(-958.11 -470.4)"><path class="cls-1" d="M1027.25,550.85v-4.36A37.66,37.66,0,0,0,1034,542c8.36-7.05,12.59-17.39,12.59-30.75v4.35c0,13.36-4.23,23.71-12.59,30.76A38.2,38.2,0,0,1,1027.25,550.85Z"/></clipPath><clipPath id="clip-path-13" transform="translate(-958.11 -470.4)"><path class="cls-1" d="M1047.55,511.23v4.35c0,13.67-4.36,24.27-13,31.52S1013.71,558,998,558v-4.36c15.75,0,28.08-3.66,36.64-10.9S1047.55,524.89,1047.55,511.23Z"/></clipPath><clipPath id="clip-path-14" transform="translate(-958.11 -470.4)"><path class="cls-1" d="M1099.87,498.12v-4.36a35.35,35.35,0,0,1,8,1.83V500A35.35,35.35,0,0,0,1099.87,498.12Z"/></clipPath><clipPath id="clip-path-15" transform="translate(-958.11 -470.4)"><path class="cls-1" d="M1108.07,500l-.22-.08v-4.36l.22.08V500Z"/></clipPath><clipPath id="clip-path-16" transform="translate(-958.11 -470.4)"><path class="cls-1" d="M1108.07,500v-4.36a19.84,19.84,0,0,1,2.32,1.06v4.36A19.84,19.84,0,0,0,1108.07,500Z"/></clipPath><clipPath id="clip-path-17" transform="translate(-958.11 -470.4)"><path class="cls-1" d="M1111.17,501.54q-.37-.24-.78-.45v-4.36q.4.21.78.45h0v4.36Z"/></clipPath><clipPath id="clip-path-18" transform="translate(-958.11 -470.4)"><path class="cls-1" d="M1113.08,503V498.6a13.09,13.09,0,0,1,4,7v4.36A13.12,13.12,0,0,0,1113.08,503Z"/></clipPath><clipPath id="clip-path-19" transform="translate(-958.11 -470.4)"><path class="cls-1" d="M1117.36,511.38c-.07-.5-.17-1-.28-1.44v-4.36c.11.47.21.95.28,1.44v4.36Z"/></clipPath><clipPath id="clip-path-20" transform="translate(-958.11 -470.4)"><path class="cls-1" d="M1143.69,509.68V514c0-12.48-4.09-21.9-12.17-28s-20.88-9.26-37.89-9.26V472.4c17,0,29.76,3.12,37.89,9.26S1143.69,497.2,1143.69,509.68Z"/></clipPath><clipPath id="clip-path-21" transform="translate(-958.11 -470.4)"><path class="cls-1" d="M1117.36,511.38c0-.14,0-.28,0-.42V507a22.28,22.28,0,0,1,.24,3.35v4.35A22.24,22.24,0,0,0,1117.36,511.38Z"/></clipPath><clipPath id="clip-path-22" transform="translate(-958.11 -470.4)"><path class="cls-1" d="M1116.6,510.37v4.35c0-5.76-2-9.91-6-12.33s-10.38-3.72-18.9-3.72v-4.36c8.52,0,14.88,1.25,18.9,3.72S1116.6,504.6,1116.6,510.37Z"/></clipPath><clipPath id="clip-path-23" transform="translate(-958.11 -470.4)"><path class="cls-1" d="M1117.6,510.37v4.35c0,6.19-2.11,10.79-6.27,13.69s-10.53,4.32-19.08,4.32v-4.36c8.55,0,15-1.44,19.08-4.31S1117.6,516.55,1117.6,510.37Z"/></clipPath><clipPath id="clip-path-24" transform="translate(-958.11 -470.4)"><path class="cls-1" d="M1126.72,543.67v-4.36a37.81,37.81,0,0,0,10.92-10.12,33,33,0,0,0,6-19.51V514a33,33,0,0,1-6,19.51A37.84,37.84,0,0,1,1126.72,543.67Z"/></clipPath><clipPath id="clip-path-25" transform="translate(-958.11 -470.4)"><path class="cls-1" d="M1144.69,509.68V514a34,34,0,0,1-6.24,20.09,41,41,0,0,1-17.06,13.51v-4.36a41,41,0,0,0,17.06-13.51A34,34,0,0,0,1144.69,509.68Z"/></clipPath><clipPath id="clip-path-26" transform="translate(-958.11 -470.4)"><path class="cls-1" d="M1156.91,597.49v4.35c-5.94-8.55-18.27-26.76-36.68-54.15v-4.36C1138.64,570.72,1151,588.93,1156.91,597.49Z"/></clipPath><clipPath id="clip-path-27" transform="translate(-958.11 -470.4)"><path class="cls-1" d="M1316.21,499.27v4.35c-.69,15.81-1.08,25.67-1.17,29.31v-4.35C1315.13,524.94,1315.52,515.07,1316.21,499.27Z"/></clipPath><clipPath id="clip-path-28" transform="translate(-958.11 -470.4)"><path class="cls-1" d="M1315,528.58v4.35c-.08,3.65-.12,6.92-.12,9.74v-4.36C1314.92,535.5,1315,532.22,1315,528.58Z"/></clipPath><clipPath id="clip-path-29" transform="translate(-958.11 -470.4)"><path class="cls-1" d="M1227.61,539.35v4.36c0-6.68-.56-20.22-1.65-40.26V499.1C1227.05,519.13,1227.61,532.67,1227.61,539.35Z"/></clipPath></defs><title>pp_logo</title><rect class="cls-1" x="16.13" y="97.71" width="99.08" height="28.21"/><g class="cls-2"><polygon points="41.93 2.01 41.93 6.37 2 5.38 2 1.02 41.93 2.01"/><rect class="cls-3" x="27.84" y="22.92" width="12.71" height="4.36"/><rect x="28.84" y="23.91" width="11.71" height="4.36"/><g class="cls-2"><g class="cls-4"><g class="cls-2"><path class="cls-5" d="M1020.46,512.18v4.35c0-6.38-1.8-11.18-5.32-14.25s-9.07-4.61-16.48-4.61v-4.36c7.41,0,13,1.55,16.48,4.61s5.32,7.87,5.32,14.26" transform="translate(-958.11 -470.4)"/></g></g></g><g class="cls-2"><g class="cls-6"><g class="cls-2"><path class="cls-5" d="M1020.46,512.18v4.35c0-6.38-1.8-11.18-5.32-14.25s-9.07-4.61-16.48-4.61v-4.36c7.41,0,13,1.55,16.48,4.61s5.32,7.87,5.32,14.26" transform="translate(-958.11 -470.4)"/></g></g></g><g class="cls-2"><g class="cls-7"><g class="cls-2"><path class="cls-5" d="M1020.46,512.18v4.35c0-6.38-1.8-11.18-5.32-14.25s-9.07-4.61-16.48-4.61v-4.36c7.41,0,13,1.55,16.48,4.61s5.32,7.87,5.32,14.26" transform="translate(-958.11 -470.4)"/></g></g></g><g class="cls-2"><g class="cls-8"><g class="cls-2"><path class="cls-5" d="M1020.46,512.18v4.35c0-6.38-1.8-11.18-5.32-14.25s-9.07-4.61-16.48-4.61v-4.36c7.41,0,13,1.55,16.48,4.61s5.32,7.87,5.32,14.26" transform="translate(-958.11 -470.4)"/></g></g></g><g class="cls-2"><g class="cls-9"><g class="cls-2"><path class="cls-5" d="M1020.46,512.18v4.35c0-6.38-1.8-11.18-5.32-14.25s-9.07-4.61-16.48-4.61v-4.36c7.41,0,13,1.55,16.48,4.61s5.32,7.87,5.32,14.26" transform="translate(-958.11 -470.4)"/></g></g></g><g class="cls-2"><g class="cls-10"><g class="cls-2"><path class="cls-5" d="M1020.46,512.18v4.35c0-6.38-1.8-11.18-5.32-14.25s-9.07-4.61-16.48-4.61v-4.36c7.41,0,13,1.55,16.48,4.61s5.32,7.87,5.32,14.26" transform="translate(-958.11 -470.4)"/></g></g></g><g class="cls-2"><g class="cls-11"><g class="cls-2"><path d="M1046.55,511.23v4.35c0-12.83-4-22.61-11.81-29.05s-19.54-9.77-34.7-9.77V472.4c15.16,0,26.83,3.29,34.7,9.77s11.81,16.23,11.81,29.06" transform="translate(-958.11 -470.4)"/></g></g></g><g class="cls-2"><g class="cls-12"><g class="cls-2"><path class="cls-5" d="M1020.46,512.18v4.35c0-6.38-1.8-11.18-5.32-14.25s-9.07-4.61-16.48-4.61v-4.36c7.41,0,13,1.55,16.48,4.61s5.32,7.87,5.32,14.26" transform="translate(-958.11 -470.4)"/></g></g></g><g class="cls-2"><g class="cls-13"><g class="cls-2"><path d="M1019.46,512.18v4.35c0-6.07-1.69-10.62-5-13.51s-8.64-4.35-15.81-4.35v-4.36c7.17,0,12.49,1.47,15.81,4.36s5,7.43,5,13.51" transform="translate(-958.11 -470.4)"/></g></g></g><rect x="27.84" y="61.34" width="9.33" height="4.36"/><g class="cls-2"><g class="cls-14"><g class="cls-2"><path d="M1020.46,512.18v4.35a24.25,24.25,0,0,1-.32,4v-4.36a24,24,0,0,0,.32-4" transform="translate(-958.11 -470.4)"/><path d="M1020.14,516.16v4.36a18.33,18.33,0,0,1-.88,3.43v-4.36a18.33,18.33,0,0,0,.88-3.43" transform="translate(-958.11 -470.4)"/><path d="M1019.26,519.59V524a16.61,16.61,0,0,1-1.47,3.06v-4.35a17,17,0,0,0,1.47-3.07" transform="translate(-958.11 -470.4)"/><path d="M1017.79,522.66V527a15.89,15.89,0,0,1-3.67,4.1c-4.17,3.31-10.51,5-18.84,5v-4.36c8.33,0,14.67-1.68,18.84-5a16.22,16.22,0,0,0,3.67-4.1" transform="translate(-958.11 -470.4)"/></g></g></g><g class="cls-2"><g class="cls-15"><g class="cls-2"><path class="cls-5" d="M1040.78,534.09v4.36a33.08,33.08,0,0,1-6.82,7.89c-8.38,7.08-20.49,10.67-36,10.67v-4.36c15.51,0,27.62-3.59,36-10.67a33.08,33.08,0,0,0,6.82-7.89" transform="translate(-958.11 -470.4)"/></g></g></g><rect class="cls-3" x="26.82" y="82.25" width="13.03" height="4.36"/><polygon points="2 1.02 2 5.38 1.01 131.45 1.01 127.09 2 1.02"/><polygon points="28.82 127.09 28.82 131.45 26.82 86.61 26.82 82.25 28.82 127.09"/><g class="cls-2"><g class="cls-16"><g class="cls-2"><path class="cls-17" d="M1046.55,511.23v4.35a54.21,54.21,0,0,1-.69,8.85v-4.35a54.39,54.39,0,0,0,.69-8.85" transform="translate(-958.11 -470.4)"/><path class="cls-18" d="M1045.86,520.08v4.35a43,43,0,0,1-1.92,7.47v-4.36a42.64,42.64,0,0,0,1.92-7.46" transform="translate(-958.11 -470.4)"/><path class="cls-19" d="M1043.94,527.54v4.36a35.07,35.07,0,0,1-3.16,6.55v-4.36a34.77,34.77,0,0,0,3.16-6.55" transform="translate(-958.11 -470.4)"/><path class="cls-5" d="M1040.78,534.09v4.36a33.08,33.08,0,0,1-6.82,7.89c-8.38,7.08-20.49,10.67-36,10.67v-4.36c15.51,0,27.62-3.59,36-10.67a33.08,33.08,0,0,0,6.82-7.89" transform="translate(-958.11 -470.4)"/></g></g></g><rect x="27.86" y="83.25" width="11.99" height="4.36"/><rect class="cls-3" x="1.01" y="127.09" width="27.81" height="4.36"/><path d="M1035.38,481.4c8.07,6.65,12.17,16.68,12.17,29.83,0,13.66-4.36,24.26-13,31.51s-20.89,10.9-36.64,10.9H986l2,44.85H958.11l1-128.09,40.93,1C1015.44,471.41,1027.33,474.77,1035.38,481.4ZM1034,542c8.36-7.05,12.59-17.39,12.59-30.75,0-12.83-4-22.62-11.81-29.06s-19.54-9.77-34.7-9.77l-39.93-1-1,126.07h27.81l-2-44.84h13c15.51,0,27.62-3.59,36-10.67" transform="translate(-958.11 -470.4)"/><path class="cls-20" d="M1034.74,482.17c7.84,6.45,11.81,16.23,11.81,29.06,0,13.36-4.23,23.7-12.59,30.75s-20.49,10.67-36,10.67h-13l2,44.84H959.12l1-126.07,39.93,1C1015.2,472.4,1026.87,475.69,1034.74,482.17Zm-20.62,44.59c4.2-3.34,6.34-8.24,6.34-14.58s-1.8-11.18-5.32-14.26-9.07-4.61-16.48-4.61H986v38.43h9.33c8.33,0,14.67-1.68,18.84-5" transform="translate(-958.11 -470.4)"/><path d="M1015.14,497.92c3.52,3.08,5.32,7.87,5.32,14.26s-2.14,11.24-6.34,14.58-10.51,5-18.84,5H986V493.31h12.71C1006.07,493.31,1011.62,494.86,1015.14,497.92ZM1013.5,526c4-3.13,6-7.78,6-13.8s-1.69-10.63-5-13.51-8.64-4.36-15.81-4.36H987v36.43h8.33c8.1,0,14.23-1.6,18.22-4.76" transform="translate(-958.11 -470.4)"/><g class="cls-2"><g class="cls-21"><g class="cls-2"><path d="M1047.55,511.23v4.35a55.25,55.25,0,0,1-.71,9v-4.36a55.13,55.13,0,0,0,.71-9" transform="translate(-958.11 -470.4)"/><path d="M1046.84,520.24v4.36a43.16,43.16,0,0,1-2,7.64v-4.36a42.93,42.93,0,0,0,2-7.64" transform="translate(-958.11 -470.4)"/><path d="M1044.88,527.88v4.36a35.47,35.47,0,0,1-3.25,6.73v-4.36a35.47,35.47,0,0,0,3.25-6.73" transform="translate(-958.11 -470.4)"/><path d="M1041.63,534.61V539a33.81,33.81,0,0,1-7,8.13C1026,554.33,1013.71,558,998,558v-4.36c15.75,0,28.08-3.66,36.64-10.9a33.81,33.81,0,0,0,7-8.13" transform="translate(-958.11 -470.4)"/></g></g></g><rect y="128.09" width="29.86" height="4.36"/></g><g class="cls-2"><rect x="99.14" y="2.01" width="36.38" height="4.36"/><rect class="cls-3" x="124.98" y="22.92" width="8.64" height="4.36"/><rect x="125.98" y="23.91" width="7.64" height="4.36"/><g class="cls-2"><g class="cls-22"><g class="cls-2"><path class="cls-5" d="M1117.6,510.37v4.35c0-6.13-2.17-10.57-6.43-13.18s-10.73-3.87-19.43-3.87v-4.36c8.7,0,15.24,1.3,19.43,3.87s6.43,7.05,6.43,13.19" transform="translate(-958.11 -470.4)"/></g></g></g><g class="cls-2"><g class="cls-23"><g class="cls-2"><path class="cls-5" d="M1117.6,510.37v4.35c0-6.13-2.17-10.57-6.43-13.18s-10.73-3.87-19.43-3.87v-4.36c8.7,0,15.24,1.3,19.43,3.87s6.43,7.05,6.43,13.19" transform="translate(-958.11 -470.4)"/></g></g></g><g class="cls-2"><g class="cls-24"><g class="cls-2"><path class="cls-5" d="M1117.6,510.37v4.35c0-6.13-2.17-10.57-6.43-13.18s-10.73-3.87-19.43-3.87v-4.36c8.7,0,15.24,1.3,19.43,3.87s6.43,7.05,6.43,13.19" transform="translate(-958.11 -470.4)"/></g></g></g><g class="cls-2"><g class="cls-25"><g class="cls-2"><path class="cls-5" d="M1117.6,510.37v4.35c0-6.13-2.17-10.57-6.43-13.18s-10.73-3.87-19.43-3.87v-4.36c8.7,0,15.24,1.3,19.43,3.87s6.43,7.05,6.43,13.19" transform="translate(-958.11 -470.4)"/></g></g></g><g class="cls-2"><g class="cls-26"><g class="cls-2"><path class="cls-5" d="M1117.6,510.37v4.35c0-6.13-2.17-10.57-6.43-13.18s-10.73-3.87-19.43-3.87v-4.36c8.7,0,15.24,1.3,19.43,3.87s6.43,7.05,6.43,13.19" transform="translate(-958.11 -470.4)"/></g></g></g><g class="cls-2"><g class="cls-27"><g class="cls-2"><path class="cls-5" d="M1117.6,510.37v4.35c0-6.13-2.17-10.57-6.43-13.18s-10.73-3.87-19.43-3.87v-4.36c8.7,0,15.24,1.3,19.43,3.87s6.43,7.05,6.43,13.19" transform="translate(-958.11 -470.4)"/></g></g></g><g class="cls-2"><g class="cls-28"><g class="cls-2"><path d="M1143.69,509.68V514c0-12.48-4.09-21.9-12.17-28s-20.88-9.26-37.89-9.26V472.4c17,0,29.76,3.12,37.89,9.26s12.17,15.54,12.17,28" transform="translate(-958.11 -470.4)"/></g></g></g><g class="cls-2"><g class="cls-29"><g class="cls-2"><path class="cls-5" d="M1117.6,510.37v4.35c0-6.13-2.17-10.57-6.43-13.18s-10.73-3.87-19.43-3.87v-4.36c8.7,0,15.24,1.3,19.43,3.87s6.43,7.05,6.43,13.19" transform="translate(-958.11 -470.4)"/></g></g></g><g class="cls-2"><g class="cls-30"><g class="cls-2"><path d="M1116.6,510.37v4.35c0-5.76-2-9.91-6-12.33s-10.38-3.72-18.9-3.72v-4.36c8.52,0,14.88,1.25,18.9,3.72s6,6.57,6,12.34" transform="translate(-958.11 -470.4)"/></g></g></g><path d="M1111.17,497.18c4.26,2.62,6.43,7.05,6.43,13.19s-2.11,10.78-6.27,13.69-10.53,4.31-19.08,4.31h-9.15V493.31h8.64C1100.44,493.31,1107,494.61,1111.17,497.18Zm-.42,26.06c3.88-2.71,5.85-7,5.85-12.87s-2-9.92-6-12.34-10.38-3.72-18.9-3.72h-7.65v33.06h8.16c8.34,0,14.57-1.39,18.5-4.13" transform="translate(-958.11 -470.4)"/><rect x="124.98" y="57.97" width="9.15" height="4.36"/><g class="cls-2"><g class="cls-31"><g class="cls-2"><path d="M1117.6,510.37v4.35a23.74,23.74,0,0,1-.29,3.77v-4.36a23.61,23.61,0,0,0,.29-3.76" transform="translate(-958.11 -470.4)"/><path d="M1117.31,514.13v4.36a16.78,16.78,0,0,1-.81,3.14v-4.36a16.78,16.78,0,0,0,.81-3.14" transform="translate(-958.11 -470.4)"/><path d="M1116.5,517.27v4.36a14.33,14.33,0,0,1-1.31,2.73V520a14.33,14.33,0,0,0,1.31-2.73" transform="translate(-958.11 -470.4)"/><path d="M1115.19,520v4.36a13.78,13.78,0,0,1-3.86,4c-4.11,2.87-10.53,4.32-19.08,4.32v-4.36c8.55,0,15-1.44,19.08-4.31a13.81,13.81,0,0,0,3.86-4.06" transform="translate(-958.11 -470.4)"/></g></g></g><g class="cls-2"><g class="cls-32"><g class="cls-2"><path class="cls-17" d="M1143.69,509.68V514a37.09,37.09,0,0,1-.47,5.93V515.6a37.05,37.05,0,0,0,.47-5.92" transform="translate(-958.11 -470.4)"/><path class="cls-18" d="M1143.22,515.6V520a32.63,32.63,0,0,1-1.52,5.85v-4.36a32.63,32.63,0,0,0,1.52-5.85" transform="translate(-958.11 -470.4)"/><path class="cls-19" d="M1141.7,521.45v4.36a32.34,32.34,0,0,1-2.9,6v-4.36a32.34,32.34,0,0,0,2.9-6" transform="translate(-958.11 -470.4)"/><path class="cls-5" d="M1138.8,527.43v4.36c-.37.59-.76,1.18-1.16,1.75A40.4,40.4,0,0,1,1120.45,547V542.6a40.45,40.45,0,0,0,17.19-13.41c.4-.58.79-1.17,1.16-1.76" transform="translate(-958.11 -470.4)"/></g></g></g><polygon class="cls-3" points="162.33 72.2 162.33 76.56 161.78 76.8 161.78 72.44 162.33 72.2"/><g class="cls-2"><g class="cls-33"><g class="cls-2"><path d="M1144.69,509.68V514a36.81,36.81,0,0,1-.49,6.09v-4.36a36.78,36.78,0,0,0,.49-6.08" transform="translate(-958.11 -470.4)"/><path d="M1144.2,515.76v4.36a33.78,33.78,0,0,1-1.56,6v-4.36a33.78,33.78,0,0,0,1.56-6" transform="translate(-958.11 -470.4)"/><path d="M1142.64,521.79v4.36a33.44,33.44,0,0,1-3,6.17V528a33.44,33.44,0,0,0,3-6.17" transform="translate(-958.11 -470.4)"/><path d="M1139.65,528v4.36q-.57.91-1.2,1.8a41,41,0,0,1-17.06,13.51v-4.36a41,41,0,0,0,17.06-13.51q.63-.88,1.2-1.8" transform="translate(-958.11 -470.4)"/></g></g></g><polygon points="162.12 72.94 162.12 77.29 161.78 76.8 161.78 72.44 162.12 72.94"/><polygon class="cls-3" points="140.19 78.95 140.19 83.31 124.98 83.07 124.98 78.71 140.19 78.95"/><rect x="125.98" y="79.71" width="13.51" height="4.36"/><g class="cls-2"><g class="cls-34"><g class="cls-2"><path d="M1156.91,597.49v4.35c-5.94-8.55-18.27-26.76-36.68-54.15v-4.36c18.41,27.39,30.74,45.6,36.68,54.16" transform="translate(-958.11 -470.4)"/></g></g></g><rect class="cls-3" x="170.25" y="127.09" width="28.55" height="4.36"/><rect class="cls-3" x="99.14" y="127.09" width="25.84" height="4.36"/><polygon class="cls-3" points="170.25 127.09 170.25 131.45 140.19 83.31 140.19 78.95 170.25 127.09"/><path d="M1158.28,597.7l.55.79h-31L1097.6,550.1h-13.51v48.39h-27.83V471.41h37.37c17.24,0,30.18,3.18,38.49,9.46s12.57,16,12.57,28.81a34,34,0,0,1-6.24,20.08,41,41,0,0,1-17.06,13.51C1140.19,571.24,1152.6,589.56,1158.28,597.7Zm-29.91-.21h28.54c-5.94-8.56-18.27-26.77-36.68-54.16l-.33-.49.55-.24a40.45,40.45,0,0,0,17.19-13.41,33,33,0,0,0,6-19.51c0-12.48-4.09-21.91-12.17-28s-20.88-9.26-37.89-9.26h-36.37V597.49h25.84V549.11h15.05l30.22,48.38" transform="translate(-958.11 -470.4)"/><path class="cls-20" d="M1120.23,543.33c18.41,27.39,30.74,45.6,36.68,54.16h-28.54l-30.06-48.14-15.21-.24v48.38h-25.84V472.4h36.37c17,0,29.76,3.12,37.89,9.26s12.17,15.54,12.17,28a33,33,0,0,1-6,19.51,40.45,40.45,0,0,1-17.19,13.41l-.55.24Zm-8.9-19.27c4.16-2.91,6.27-7.51,6.27-13.69s-2.17-10.57-6.43-13.19-10.73-3.87-19.43-3.87h-8.64v35.06h9.15c8.55,0,15-1.44,19.08-4.31" transform="translate(-958.11 -470.4)"/><rect x="169.7" y="128.09" width="31.01" height="4.36"/><polygon points="169.7 128.09 169.7 132.45 139.49 84.06 139.49 79.7 169.7 128.09"/><rect x="98.14" y="128.09" width="27.84" height="4.36"/></g><g class="cls-2"><rect x="205" y="2.01" width="25.84" height="4.36"/><polygon points="205 2.01 205 6.37 204.01 131.45 204.01 127.09 205 2.01"/><rect class="cls-3" x="204.01" y="127.09" width="25.83" height="4.36"/><polygon class="cls-20" points="230.84 2.01 229.84 127.09 204.01 127.09 205 2.01 230.84 2.01"/><polygon class="cls-35" points="230.84 2.01 230.84 6.37 229.84 131.45 229.84 127.09 230.84 2.01"/><rect x="203" y="128.09" width="27.84" height="4.36"/><polygon points="231.85 1.01 231.85 5.37 230.84 132.45 230.84 128.09 231.85 1.01"/><path d="M1162.12,471.41H1190l-1,127.08h-27.83ZM1188,597.49l1-125.09h-25.84l-1,125.09H1188" transform="translate(-958.11 -470.4)"/></g><g class="cls-2"><rect x="345.15" y="2.01" width="35.68" height="4.36"/><rect x="246.51" y="2.01" width="35.67" height="4.36"/><rect class="cls-3" x="267.82" y="28.18" width="1.67" height="4.36"/><rect class="cls-3" x="356.46" y="28.35" width="1.67" height="4.36"/><polygon points="267.85 28.7 267.85 33.06 267.82 32.54 267.82 28.18 267.85 28.7"/><polygon points="358.13 28.35 358.13 32.71 358.1 33.23 358.1 28.87 358.13 28.35"/><g class="cls-2"><g class="cls-36"><g class="cls-2"><path d="M1316.21,499.27v4.35c-.69,15.81-1.08,25.67-1.17,29.31v-4.35c.09-3.64.48-13.51,1.17-29.31" transform="translate(-958.11 -470.4)"/></g></g></g><g class="cls-2"><g class="cls-37"><g class="cls-2"><path d="M1315,528.58v4.35c-.08,3.65-.12,6.92-.12,9.74v-4.36c0-2.81,0-6.09.12-9.73" transform="translate(-958.11 -470.4)"/></g></g></g><g class="cls-2"><g class="cls-38"><g class="cls-2"><path d="M1227.61,539.35v4.36c0-6.68-.56-20.22-1.65-40.26V499.1c1.09,20,1.65,33.57,1.65,40.25" transform="translate(-958.11 -470.4)"/></g></g></g><polygon points="312.13 98.43 312.13 102.78 282.18 6.37 282.18 2.01 312.13 98.43"/><rect x="312.13" y="98.43" width="1.25" height="4.36"/><polygon points="345.15 2.01 345.15 6.37 313.38 102.78 313.38 98.43 345.15 2.01"/><polygon points="356.81 67.92 356.81 72.27 355.81 131.45 355.81 127.09 356.81 67.92"/><polygon points="270.49 127.09 270.49 131.45 269.5 73.31 269.5 68.96 270.49 127.09"/><polygon points="246.51 2.01 246.51 6.37 245.52 131.45 245.52 127.09 246.51 2.01"/><polygon points="381.82 127.09 381.82 131.45 380.83 6.37 380.83 2.01 381.82 127.09"/><rect class="cls-3" x="355.82" y="127.09" width="26" height="4.36"/><path class="cls-20" d="M1338.94,472.4l1,125.09h-26l1-59.18c0-2.81,0-6.09.12-9.73s.48-13.51,1.17-29.31l0-.52h-1.66l-32.64,98.74h-23.86l-30.47-98.91h-1.68l0,.52c1.09,20,1.65,33.57,1.65,40.25l1,58.14h-25l1-125.09h35.67l29.84,96.06,1.36.36,31.77-96.42Z" transform="translate(-958.11 -470.4)"/><rect class="cls-3" x="245.52" y="127.09" width="24.97" height="4.36"/><polygon class="cls-3" points="299.97 127.09 299.97 131.45 269.5 32.54 269.5 28.18 299.97 127.09"/><rect class="cls-3" x="299.97" y="127.09" width="23.86" height="4.36"/><polygon class="cls-39" points="356.46 28.35 356.46 32.71 323.83 131.45 323.83 127.09 356.46 28.35"/><polygon points="299.23 128.09 299.23 132.45 268.9 34 268.9 29.64 299.23 128.09"/><rect x="299.23" y="128.09" width="25.32" height="4.36"/><polygon points="357.07 29.71 357.07 34.07 324.55 132.45 324.55 128.09 357.07 29.71"/><rect x="354.8" y="128.09" width="28.03" height="4.36"/><rect x="244.51" y="128.09" width="26.99" height="4.36"/><path d="M1313.92,538.3c0-2.81,0-6.09.12-9.74s.47-13.16,1.14-28.45l-32.52,98.38h-25.32L1227,500c1.06,19.5,1.6,32.72,1.6,39.3l1,59.15h-27l1-127.08H1241l29.85,96.09,31.66-96.09h37.39l1,127.08h-28Zm1.12-9.72c-.08,3.64-.12,6.92-.12,9.73l-1,59.18h26l-1-125.09h-35.68l-31.77,96.42h-1.25l-30-96.42h-35.67l-1,125.09h25l-1-58.14c0-6.68-.56-20.22-1.65-40.25l0-.52h1.68l30.47,98.91h23.86l32.64-98.74h1.66l0,.52c-.69,15.8-1.08,25.67-1.17,29.31" transform="translate(-958.11 -470.4)"/></g><g class="cls-2"><polygon points="472.37 1.02 472.37 5.38 399.49 6.36 399.49 2 472.37 1.02"/><polygon class="cls-40" points="472.37 1.02 472.37 5.38 471.41 27.27 471.41 22.92 472.37 1.02"/><rect class="cls-3" x="425.33" y="22.92" width="46.08" height="4.36"/><rect x="426.33" y="23.91" width="46.03" height="4.36"/><polygon points="473.41 0.01 473.41 4.37 472.37 28.27 472.37 23.91 473.41 0.01"/><polygon points="468.18 50.61 468.18 54.97 425.33 55.97 425.33 51.61 468.18 50.61"/><polygon class="cls-3" points="468.18 73.49 468.18 77.85 425.33 76.85 425.33 72.49 468.18 73.49"/><polygon points="469.19 74.5 469.19 78.86 426.33 77.87 426.33 73.51 469.19 74.5"/><polygon points="472.38 105.03 472.38 109.38 425.33 110.38 425.33 106.02 472.38 105.03"/><polygon class="cls-3" points="472.38 128.09 472.38 132.44 399.49 131.46 399.49 127.1 472.38 128.09"/><path d="M1384.44,543.91V575.4l47.06-1v25.08l-74.89-1V471.42l74.91-1-1,23.9h-46V521l42.86-1V544.9Zm46.06,31.51-47.06,1V542.88l42.85,1V521l-42.85,1V493.31h46.08l1-21.89-72.88,1V597.5l72.9,1V575.42" transform="translate(-958.11 -470.4)"/><polygon class="cls-20" points="472.37 1.02 471.41 22.92 425.33 22.92 425.33 51.61 468.18 50.61 468.18 73.49 425.33 72.49 425.33 106.02 472.38 105.03 472.38 128.09 399.49 127.1 399.49 2 472.37 1.02"/><polygon points="473.39 129.09 473.39 133.45 398.49 132.44 398.49 128.09 473.39 129.09"/></g><path d="M986,619.91q0,5.82-3.94,8.91t-11.22,3.08h-3.56v12.84H959V608.65h12.49q7.11,0,10.82,2.83T986,619.91Zm-18.72,5.72H970a9.65,9.65,0,0,0,5.72-1.39,4.72,4.72,0,0,0,1.9-4.06,4.81,4.81,0,0,0-1.59-4,8,8,0,0,0-5-1.28h-3.77Z" transform="translate(-958.11 -470.4)"/><path d="M1009.44,644.68l-2.75-8.35H992.84l-2.75,8.35h-8.67l13.4-35.21h9.84l13.45,35.21Zm-4.68-14.58q-3.81-11.36-4.29-12.83c-.32-1-.55-1.78-.69-2.35q-.85,3.06-4.91,15.18Z" transform="translate(-958.11 -470.4)"/><path d="M1072.21,644.9H1061.7l-17-27.77h-.24q.51,7.35.51,10.5V644.9h-7.39V608.19h10.43l16.93,27.5h.19q-.4-7.17-.4-10.12V608.19h7.44Z" transform="translate(-958.11 -470.4)"/><path d="M1129.36,645.12h-22.45V608.41h22.45v6.38h-14.18v8.06h13.2v6.37h-13.2v9.47h14.18Z" transform="translate(-958.11 -470.4)"/><path d="M1140.54,631.14v14.09h-8.27V608.52h11.36q7.95,0,11.76,2.72t3.82,8.28a9.31,9.31,0,0,1-1.9,5.76,12.41,12.41,0,0,1-5.36,4q8.8,12.39,11.47,16h-9.17l-9.31-14.09Zm0-6.33h2.67q3.91,0,5.78-1.23a4.28,4.28,0,0,0,1.87-3.86A4,4,0,0,0,1149,616a12.13,12.13,0,0,0-5.9-1.1h-2.51Z" transform="translate(-958.11 -470.4)"/><path d="M1189,635.15a9.29,9.29,0,0,1-3.8,7.84q-3.79,2.87-10.57,2.86a26.18,26.18,0,0,1-11-2.21v-7.23a48.73,48.73,0,0,0,6.68,2.34,21,21,0,0,0,5,.67,7.39,7.39,0,0,0,4.17-1c1-.65,1.45-4.24,1.45-5.53,0-.72-.21,1.26-.64.7a6.9,6.9,0,0,0-1.88-1.62,48.68,48.68,0,0,0-5-2.49,24.17,24.17,0,0,1-5.36-3,11.51,11.51,0,0,1-2.85-3.39,10.1,10.1,0,0,1,2.44-12.18c2.33-1.86,5.57-2.79,9.69-2.79a24.31,24.31,0,0,1,5.8.68,41.35,41.35,0,0,1,5.77,1.91l-2.66,6a39.9,39.9,0,0,0-5.16-1.68,17.51,17.51,0,0,0-4-.48,5.54,5.54,0,0,0-3.6,1,3.33,3.33,0,0,0-1.25,2.69,3.16,3.16,0,0,0,.51,1.79,5.21,5.21,0,0,0,1.61,1.48,50,50,0,0,0,5.24,2.58q5.46,2.46,7.49,4.93A9.26,9.26,0,0,1,1189,635.15Z" transform="translate(-958.11 -470.4)"/><path d="M1093.57,645.25h-8.27V615h-10.58v-6.48h29.44V615h-10.59Z" transform="translate(-958.11 -470.4)"/><path d="M1021.78,646V609.19h9.37V646Z" transform="translate(-958.11 -470.4)"/><line class="cls-41" x1="517.58" y1="251.59" x2="472.48" y2="251.94"/><line class="cls-41" x1="472.32" y1="160.6" x2="363.85" y2="160.6"/><rect class="cls-42" x="247.04" y="143.51" width="137.69" height="34.17"/><line class="cls-41" x1="469" y1="255.44" x2="469" y2="157.19"/><line class="cls-41" x1="514.14" y1="208.82" x2="514.14" y2="250.58"/><rect class="cls-43" x="1350.71" y="571.48" width="235.77" height="40.81" transform="translate(1102.37 -1347.11) rotate(90)"/></svg>